# xmcd
#
# Track frame offsets: 
#        150
#        12997
#        26485
#        39222
#        51727
#        63092
#        76292
#        88745
#        100355
#        111135
#        124690
#        136375
#        147102
#        159415
#        172207
#        184095
#        195950
#        207332
#        221277
#        232700
#        244827
#        257582
#        269872
#        284392
#        298207
#
# Disc length: 4110 seconds
#
# Revision: 0
# Processed by: cddbd v1.5.2PL0 Copyright (c) Steve Scherf et al.
# Submitted via: ExactAudioCopy v0.99pb4
#
DISCID=6e100c19
DTITLE=Roy Milton - R. M. Blues
DYEAR=1993
DGENRE=Blues
TTITLE0=Milton's Boogie
TTITLE1=R.M. Blues
TTITLE2=True Blues
TTITLE3=Rainy Day Confession Blues
TTITLE4=Camille's Boogie
TTITLE5=Thrill Me
TTITLE6=Big Fat Mama
TTITLE7='Tain't Me
TTITLE8=Keep A Dollar In Your Pocket
TTITLE9=Everything I Do Is Wrong
TTITLE10=Hop, Skip and Jump
TTITLE11=The Hucklebuck
TTITLE12=Information Blues
TTITLE13=Where Is No Love
TTITLE14=The Numbers Blues
TTITLE15=Junior Jives
TTITLE16=Oh Babe
TTITLE17=Christmas Time Blues
TTITLE18=I Have News For You
TTITLE19=It's Later Than You Think
TTITLE20=T-Town Twist
TTITLE21=Best Wishes
TTITLE22=So Tired
TTITLE23=Night And Day
TTITLE24=What Can I Do
EXTD=
EXTT0=
EXTT1=
EXTT2=
EXTT3=
EXTT4=
EXTT5=
EXTT6=
EXTT7=
EXTT8=
EXTT9=
EXTT10=
EXTT11=
EXTT12=
EXTT13=
EXTT14=
EXTT15=
EXTT16=
EXTT17=
EXTT18=
EXTT19=
EXTT20=
EXTT21=
EXTT22=
EXTT23=
EXTT24=
PLAYORDER=
